<svg width="100" height="100" viewBox="0 0 100 100" fill="none" xmlns="http://www.w3.org/2000/svg">
<rect width="100" height="100" rx="4" fill="#ECECEC"/>
<path d="M66.5891 31.3373H33.4109L30 54.283H70L66.5891 31.3373Z" fill="#AEAEAE"/>
<path d="M56.4806 22.5H43.5193L41.8992 28.3915H58.1007L56.4806 22.5Z" fill="#AEAEAE"/>
<circle cx="49.9999" cy="42.3838" r="5.15504" fill="#767676"/>
<path d="M19.48 67.5017V81.7517H17.4644V67.5017H19.48ZM7.99562 73.5642C7.98781 70.4626 9.57375 68.5017 11.7612 68.5017C13.9019 68.5017 15.4956 70.4626 15.4956 73.5642C15.4956 76.6892 13.9019 78.6423 11.7612 78.6423C9.57375 78.6423 7.98781 76.6892 7.99562 73.5642ZM9.9175 73.5642C9.90969 75.6814 10.6519 76.8376 11.7612 76.8298C12.8394 76.8376 13.5659 75.6814 13.5737 73.5642C13.5659 71.4548 12.8394 70.2986 11.7612 70.2986C10.6519 70.2986 9.90969 71.4548 9.9175 73.5642ZM28.82 68.783V78.3298H21.945V68.783H28.82ZM23.945 76.7517H26.8825V70.3455H23.945V76.7517ZM31.1325 81.7517V67.5017H33.1481V81.7517H31.1325ZM40.4256 71.3767C40.4178 73.6736 41.6053 76.1345 43.9881 77.1267L42.91 78.6892C41.2381 77.9783 40.0819 76.5642 39.4412 74.8455C38.8006 76.7126 37.6209 78.2751 35.9412 79.0486L34.8006 77.4705C37.16 76.4158 38.3787 73.783 38.3787 71.3767V70.5017H35.3631V68.8767H43.3944V70.5017H40.4256V71.3767ZM44.8006 81.7205V67.5017H46.8162V81.7205H44.8006ZM63.9025 68.1111V69.6736H59.9806C60.2072 70.8455 61.6838 72.033 64.4963 72.3455L63.7619 73.908C61.0978 73.6111 59.3244 72.5095 58.5744 71.033C57.8244 72.5017 56.0588 73.6111 53.4025 73.908L52.6838 72.3455C55.4963 72.033 56.9494 70.8376 57.1838 69.6736H53.2931V68.1111H63.9025ZM52.09 76.1736V74.5798H65.1056V76.1736H59.7463V78.6267H57.7775V76.1736H52.09ZM53.6213 81.4705V77.3611H55.6056V79.8767H63.6681V81.4705H53.6213ZM77.68 67.5017V81.7517H75.6644V67.5017H77.68ZM66.4769 78.4236V68.6267H68.4769V72.0955H71.5394V68.6267H73.5081V78.4236H66.4769ZM68.4769 76.8142H71.5394V73.6423H68.4769V76.8142ZM92.4106 73.9548V75.5642H86.9106V76.6189C89.3794 76.7986 90.8481 77.6892 90.8638 79.158C90.8481 80.8064 88.9809 81.7283 85.9106 81.7205C82.7934 81.7283 80.9263 80.8064 80.9263 79.158C80.9263 77.6814 82.4028 76.7908 84.9263 76.6111V75.5642H79.4419V73.9548H92.4106ZM80.02 71.8611C82.6528 71.6267 84.1059 70.658 84.4653 69.6736H80.6294V68.1111H91.2388V69.6736H87.3716C87.7153 70.6658 89.1606 71.6267 91.8638 71.8611L91.1606 73.4236C88.4731 73.1658 86.6684 72.158 85.9106 70.7751C85.1606 72.1501 83.3716 73.1736 80.6763 73.4236L80.02 71.8611ZM82.9575 79.158C82.9497 79.8455 83.9419 80.2205 85.9106 80.2205C87.8403 80.2205 88.8559 79.8455 88.8638 79.158C88.8559 78.4392 87.8403 78.0955 85.9106 78.0798C83.9419 78.0955 82.9497 78.4392 82.9575 79.158Z" fill="#8F8F8F"/>
</svg>
