<svg width="32" height="32" viewBox="0 0 32 32" fill="none" xmlns="http://www.w3.org/2000/svg">
<g clip-path="url(#clip0_1320_8198)">
<rect x="5" y="14.0001" width="2" height="14" fill="#555555"/>
<path d="M5 14.0001L5 16.0001L11 16.0001L9.5 14.0001L5 14.0001Z" fill="#555555"/>
<path fill-rule="evenodd" clip-rule="evenodd" d="M17 7.00012V20.0792H15V7.00012H17Z" fill="#555555"/>
<rect x="27" y="26.0001" width="2" height="22" transform="rotate(90 27 26.0001)" fill="#555555"/>
<path d="M27 14.0001L27 16.0001L21 16.0001L22.5 14.0001L27 14.0001Z" fill="#555555"/>
<rect x="25" y="14.0001" width="2" height="14" fill="#555555"/>
<path d="M24.06 10.92L24.3 11.1L24 11.1L21.6 11.1L21.5672 11.1L21.5408 11.0806L16 7.0123L10.4592 11.0806L10.4328 11.1L10.4 11.1L8 11.1L7.7 11.1L7.94 10.92L15.94 4.92L16 4.875L16.06 4.92L24.06 10.92Z" fill="#555555" stroke="#555555" stroke-width="0.2"/>
</g>
<defs>
<clipPath id="clip0_1320_8198">
<rect width="32" height="32" fill="white"/>
</clipPath>
</defs>
</svg>
