<svg width="129" height="40" viewBox="0 0 129 40" fill="none" xmlns="http://www.w3.org/2000/svg">
<g clip-path="url(#clip0_2815_7983)">
<path d="M58.1104 27.2292L74.0167 0.216553H62.1412L46.4428 27.2292H58.1104Z" fill="white"/>
<path d="M55.5437 0.216797H43.6773L35.3536 14.585L34.1516 0.216797H22.8455L4.95092 30.2439H0.377869L5.91795 40.0002L22.0682 30.289L16.7902 30.2529L25.8008 14.576L27.9879 38.9894L75.2548 38.9172H121.799L126.489 30.8576L37.5136 30.8486L55.5437 0.216797Z" fill="white"/>
<path d="M79.8459 10.2166L70.1034 26.3989L69.6244 27.2292H81.301L91.5226 10.2166H97.4332L102.946 0.532437L103.127 0.216553H79.611L74.098 9.90067L73.9263 10.2166H79.8459Z" fill="white"/>
<path d="M127.773 4.12455C126.39 1.46209 123.516 0 119.666 0C112.363 0 103.778 5.40614 99.6836 12.5812C97.379 16.6426 96.9362 20.4513 98.4183 23.2942C99.8101 25.9747 102.693 27.4458 106.543 27.4458C113.809 27.4458 122.377 22.0217 126.471 14.8375C128.785 10.7581 129.246 6.94946 127.764 4.11552L127.773 4.12455ZM116.43 12.5812C114.822 15.4061 112.255 17.2383 109.878 17.2383C109.318 17.2383 109.074 17.139 109.001 17.1029C108.974 16.9134 109.038 16.2094 109.733 14.9458L109.797 14.8466C111.424 11.9765 113.954 10.1895 116.385 10.1895C116.9 10.1895 117.153 10.2798 117.253 10.3249C117.262 10.4874 117.253 11.1733 116.448 12.5903L116.43 12.5812Z" fill="white"/>
</g>
<defs>
<clipPath id="clip0_2815_7983">
<rect width="128.244" height="40" fill="white" transform="translate(0.377869)"/>
</clipPath>
</defs>
</svg>
