<svg width="97" height="30" viewBox="0 0 97 30" fill="none" xmlns="http://www.w3.org/2000/svg">
<g clip-path="url(#clip0_305_1074)">
<path d="M43.2994 20.422L55.2291 0.162476H46.3225L34.5487 20.422H43.2994Z" fill="#FC5660"/>
<path d="M41.3744 0.162476H32.4745L26.2318 10.9386L25.3303 0.162476H16.8507L3.42979 22.6828H0L4.15506 30L16.2678 22.7166L12.3093 22.6895L19.0672 10.9319L20.7075 29.2419L56.1577 29.1877H91.0656L94.5835 23.1431L27.8518 23.1363L41.3744 0.162476Z" fill="#FC5660"/>
<path d="M59.6011 7.66248L52.2941 19.7992L51.9349 20.422H60.6924L68.3585 7.66248H72.7915L76.9262 0.399389L77.0618 0.162476H59.4248L55.2901 7.42556L55.1613 7.66248H59.6011Z" fill="#FC5660"/>
<path d="M95.5461 3.09341C94.509 1.09657 92.3535 0 89.466 0C83.9892 0 77.5498 4.0546 74.4793 9.43592C72.7508 12.4819 72.4187 15.3384 73.5303 17.4707C74.5742 19.481 76.7364 20.5844 79.624 20.5844C85.0737 20.5844 91.4995 16.5162 94.57 11.1282C96.3052 8.06859 96.6509 5.21209 95.5393 3.08664L95.5461 3.09341ZM87.0394 9.43592C85.8328 11.5546 83.9078 12.9287 82.1252 12.9287C81.7049 12.9287 81.5219 12.8542 81.4677 12.8272C81.4473 12.685 81.4948 12.157 82.0167 11.2094L82.0641 11.1349C83.2842 8.9824 85.1821 7.64215 87.0055 7.64215C87.3918 7.64215 87.5816 7.70984 87.6562 7.74368C87.663 7.86552 87.6562 8.37996 87.0529 9.44269L87.0394 9.43592Z" fill="#FC5660"/>
</g>
<defs>
<clipPath id="clip0_305_1074">
<rect width="96.1832" height="30" fill="white"/>
</clipPath>
</defs>
</svg>
