<svg width="53" height="52" viewBox="0 0 53 52" fill="none" xmlns="http://www.w3.org/2000/svg">
<rect x="0.499023" width="52" height="52" rx="26" fill="#1A1A1A"/>
<g clip-path="url(#clip0_4061_7874)">
<path d="M37.9231 31.8207C37.4997 32.799 36.9985 33.6995 36.4178 34.5273C35.6262 35.6559 34.978 36.4372 34.4786 36.871C33.7043 37.583 32.8747 37.9477 31.9863 37.9685C31.3485 37.9685 30.5794 37.787 29.6841 37.4189C28.7859 37.0524 27.9605 36.871 27.2057 36.871C26.4141 36.871 25.5652 37.0524 24.6571 37.4189C23.7476 37.787 23.015 37.9788 22.4548 37.9978C21.6029 38.0341 20.7538 37.6591 19.9062 36.871C19.3653 36.3991 18.6886 35.5903 17.878 34.4444C17.0083 33.2207 16.2933 31.8017 15.7332 30.184C15.1333 28.4367 14.8325 26.7446 14.8325 25.1065C14.8325 23.23 15.238 21.6116 16.0501 20.2554C16.6884 19.166 17.5375 18.3067 18.6003 17.6758C19.6631 17.045 20.8114 16.7235 22.048 16.7029C22.7246 16.7029 23.612 16.9122 24.7146 17.3236C25.8142 17.7363 26.5202 17.9456 26.8298 17.9456C27.0612 17.9456 27.8455 17.7009 29.1751 17.213C30.4325 16.7605 31.4937 16.5731 32.3631 16.6469C34.7188 16.8371 36.4886 17.7657 37.6656 19.4387C35.5588 20.7153 34.5166 22.5033 34.5373 24.7969C34.5563 26.5835 35.2045 28.0702 36.4782 29.2507C37.0555 29.7986 37.7002 30.222 38.4174 30.5228C38.2619 30.9739 38.0977 31.4059 37.9231 31.8207ZM32.5203 10.5604C32.5203 11.9607 32.0088 13.2682 30.989 14.4784C29.7585 15.9171 28.27 16.7484 26.6559 16.6172C26.6354 16.4492 26.6234 16.2724 26.6234 16.0866C26.6234 14.7423 27.2086 13.3036 28.2479 12.1273C28.7667 11.5317 29.4266 11.0365 30.2268 10.6415C31.0253 10.2523 31.7806 10.0371 32.491 10.0002C32.5117 10.1874 32.5203 10.3747 32.5203 10.5604V10.5604Z" fill="white"/>
</g>
<defs>
<clipPath id="clip0_4061_7874">
<rect width="28" height="28" fill="white" transform="translate(12.499 10)"/>
</clipPath>
</defs>
</svg>
 