<svg width="53" height="52" viewBox="0 0 53 52" fill="none" xmlns="http://www.w3.org/2000/svg">
<rect x="0.999023" y="0.5" width="51" height="51" rx="25.5" fill="white"/>
<rect x="0.999023" y="0.5" width="51" height="51" rx="25.5" stroke="#ECECEC"/>
<g clip-path="url(#clip0_4061_7879)">
<path d="M26.499 23.4545V28.8763H34.0335C33.7027 30.6199 32.7098 32.0963 31.2208 33.0891L35.7644 36.6145C38.4117 34.171 39.9389 30.5819 39.9389 26.3182C39.9389 25.3255 39.8499 24.3709 39.6844 23.4546L26.499 23.4545Z" fill="#4285F4"/>
<path d="M18.6526 28.6647L17.6278 29.4491L14.0005 32.2745C16.3041 36.8436 21.0256 40 26.4983 40C30.2782 40 33.4472 38.7527 35.7636 36.6146L31.22 33.0891C29.9727 33.9291 28.3818 34.4382 26.4983 34.4382C22.8583 34.4382 19.7657 31.9819 18.6583 28.6728L18.6526 28.6647Z" fill="#34A853"/>
<path d="M14.0007 19.7255C13.0462 21.609 12.499 23.7345 12.499 25.9999C12.499 28.2653 13.0462 30.3908 14.0007 32.2744C14.0007 32.287 18.659 28.6598 18.659 28.6598C18.379 27.8198 18.2135 26.929 18.2135 25.9998C18.2135 25.0706 18.379 24.1797 18.659 23.3397L14.0007 19.7255Z" fill="#FBBC05"/>
<path d="M26.4986 17.5745C28.5604 17.5745 30.3931 18.2872 31.8567 19.6618L35.8658 15.6528C33.4349 13.3874 30.2786 12 26.4986 12C21.0259 12 16.3041 15.1436 14.0005 19.7255L18.6586 23.34C19.7658 20.0309 22.8586 17.5745 26.4986 17.5745Z" fill="#EA4335"/>
</g>
<defs>
<clipPath id="clip0_4061_7879">
<rect width="28" height="28" fill="white" transform="translate(12.499 12)"/>
</clipPath>
</defs>
</svg>
