<svg width="80" height="80" viewBox="0 0 80 80" fill="none" xmlns="http://www.w3.org/2000/svg">
<rect width="80" height="80" rx="4" fill="#ECECEC"/>
<path d="M51.2632 24H28.7368L26.4211 39.5789H53.5789L51.2632 24Z" fill="#AEAEAE"/>
<path d="M44.3999 18H35.5999L34.4999 22H45.4999L44.3999 18Z" fill="#AEAEAE"/>
<circle cx="39.9999" cy="31.5" r="3.5" fill="#767676"/>
<path d="M17.11 48.993V59.6805H15.5983V48.993H17.11ZM8.49672 53.5399C8.49086 51.2137 9.68031 49.743 11.3209 49.743C12.9264 49.743 14.1217 51.2137 14.1217 53.5399C14.1217 55.8837 12.9264 57.3485 11.3209 57.3485C9.68031 57.3485 8.49086 55.8837 8.49672 53.5399ZM9.93813 53.5399C9.93227 55.1278 10.4889 55.995 11.3209 55.9891C12.1295 55.995 12.6745 55.1278 12.6803 53.5399C12.6745 51.9579 12.1295 51.0907 11.3209 51.0907C10.4889 51.0907 9.93227 51.9579 9.93813 53.5399ZM24.115 49.954V57.1141H18.9588V49.954H24.115ZM20.4588 55.9305H22.6619V51.1259H20.4588V55.9305ZM25.8494 59.6805V48.993H27.3611V59.6805H25.8494ZM32.8192 51.8993C32.8134 53.6219 33.704 55.4677 35.4911 56.2118L34.6825 57.3837C33.4286 56.8505 32.5614 55.7899 32.0809 54.5009C31.6005 55.9012 30.7157 57.0731 29.4559 57.6532L28.6005 56.4696C30.37 55.6786 31.2841 53.704 31.2841 51.8993V51.243H29.0223V50.0243H35.0458V51.243H32.8192V51.8993ZM36.1005 59.6571V48.993H37.6122V59.6571H36.1005ZM50.4269 49.4501V50.6219H47.4855C47.6554 51.5009 48.7628 52.3915 50.8722 52.6259L50.3214 53.7977C48.3234 53.5751 46.9933 52.7489 46.4308 51.6415C45.8683 52.743 44.5441 53.5751 42.5519 53.7977L42.0128 52.6259C44.1222 52.3915 45.212 51.495 45.3878 50.6219H42.4698V49.4501H50.4269ZM41.5675 55.4969V54.3016H51.3292V55.4969H47.3097V57.3368H45.8331V55.4969H41.5675ZM42.7159 59.4696V56.3876H44.2042V58.2743H50.2511V59.4696H42.7159ZM60.76 48.993V59.6805H59.2483V48.993H60.76ZM52.3577 57.1844V49.8368H53.8577V52.4384H56.1545V49.8368H57.6311V57.1844H52.3577ZM53.8577 55.9774H56.1545V53.5985H53.8577V55.9774ZM71.808 53.8329V55.0399H67.683V55.8309C69.5345 55.9657 70.6361 56.6337 70.6478 57.7352C70.6361 58.9716 69.2357 59.663 66.933 59.6571C64.5951 59.663 63.1947 58.9716 63.1947 57.7352C63.1947 56.6278 64.3021 55.9598 66.1947 55.8251V55.0399H62.0814V53.8329H71.808ZM62.515 52.2626C64.4896 52.0868 65.5795 51.3602 65.849 50.6219H62.972V49.4501H70.9291V50.6219H68.0287C68.2865 51.3661 69.3705 52.0868 71.3978 52.2626L70.8705 53.4344C68.8548 53.2411 67.5013 52.4852 66.933 51.4481C66.3705 52.4794 65.0287 53.2469 63.0072 53.4344L62.515 52.2626ZM64.7181 57.7352C64.7123 58.2509 65.4564 58.5321 66.933 58.5321C68.3802 58.5321 69.142 58.2509 69.1478 57.7352C69.142 57.1962 68.3802 56.9384 66.933 56.9266C65.4564 56.9384 64.7123 57.1962 64.7181 57.7352Z" fill="#8F8F8F"/>
</svg>
