<svg width="64" height="46" viewBox="0 0 64 46" fill="none" xmlns="http://www.w3.org/2000/svg">
<path d="M43.2632 6H20.7368L18.4211 21.5789H45.5789L43.2632 6Z" fill="#AEAEAE"/>
<path d="M36.3999 0H27.5999L26.4999 4H37.4999L36.3999 0Z" fill="#AEAEAE"/>
<circle cx="31.9999" cy="13.5" r="3.5" fill="#767676"/>
<path d="M9.11 30.993V41.6805H7.59828V30.993H9.11ZM0.496719 35.5399C0.49086 33.2137 1.68031 31.743 3.32094 31.743C4.92641 31.743 6.12172 33.2137 6.12172 35.5399C6.12172 37.8837 4.92641 39.3485 3.32094 39.3485C1.68031 39.3485 0.49086 37.8837 0.496719 35.5399ZM1.93813 35.5399C1.93227 37.1278 2.48891 37.995 3.32094 37.9891C4.12953 37.995 4.67445 37.1278 4.68031 35.5399C4.67445 33.9579 4.12953 33.0907 3.32094 33.0907C2.48891 33.0907 1.93227 33.9579 1.93813 35.5399ZM16.115 31.954V39.1141H10.9588V31.954H16.115ZM12.4588 37.9305H14.6619V33.1259H12.4588V37.9305ZM17.8494 41.6805V30.993H19.3611V41.6805H17.8494ZM24.8192 33.8993C24.8134 35.6219 25.704 37.4677 27.4911 38.2118L26.6825 39.3837C25.4286 38.8505 24.5614 37.7899 24.0809 36.5009C23.6005 37.9012 22.7157 39.0731 21.4559 39.6532L20.6005 38.4696C22.37 37.6786 23.2841 35.704 23.2841 33.8993V33.243H21.0223V32.0243H27.0458V33.243H24.8192V33.8993ZM28.1005 41.6571V30.993H29.6122V41.6571H28.1005ZM42.4269 31.4501V32.6219H39.4855C39.6554 33.5009 40.7628 34.3915 42.8722 34.6259L42.3214 35.7977C40.3234 35.5751 38.9933 34.7489 38.4308 33.6415C37.8683 34.743 36.5441 35.5751 34.5519 35.7977L34.0128 34.6259C36.1222 34.3915 37.212 33.495 37.3878 32.6219H34.4698V31.4501H42.4269ZM33.5675 37.4969V36.3016H43.3292V37.4969H39.3097V39.3368H37.8331V37.4969H33.5675ZM34.7159 41.4696V38.3876H36.2042V40.2743H42.2511V41.4696H34.7159ZM52.76 30.993V41.6805H51.2483V30.993H52.76ZM44.3577 39.1844V31.8368H45.8577V34.4384H48.1545V31.8368H49.6311V39.1844H44.3577ZM45.8577 37.9774H48.1545V35.5985H45.8577V37.9774ZM63.808 35.8329V37.0399H59.683V37.8309C61.5345 37.9657 62.6361 38.6337 62.6478 39.7352C62.6361 40.9716 61.2357 41.663 58.933 41.6571C56.5951 41.663 55.1947 40.9716 55.1947 39.7352C55.1947 38.6278 56.3021 37.9598 58.1947 37.8251V37.0399H54.0814V35.8329H63.808ZM54.515 34.2626C56.4896 34.0868 57.5795 33.3602 57.849 32.6219H54.972V31.4501H62.9291V32.6219H60.0287C60.2865 33.3661 61.3705 34.0868 63.3978 34.2626L62.8705 35.4344C60.8548 35.2411 59.5013 34.4852 58.933 33.4481C58.3705 34.4794 57.0287 35.2469 55.0072 35.4344L54.515 34.2626ZM56.7181 39.7352C56.7123 40.2509 57.4564 40.5321 58.933 40.5321C60.3802 40.5321 61.142 40.2509 61.1478 39.7352C61.142 39.1962 60.3802 38.9384 58.933 38.9266C57.4564 38.9384 56.7123 39.1962 56.7181 39.7352Z" fill="#8F8F8F"/>
</svg>
