
<svg width="32" height="32" viewBox="0 0 32 32" fill="none" xmlns="http://www.w3.org/2000/svg">
<rect x="0.5" y="0.5" width="31" height="31" rx="15.5" fill="white"/>
<rect x="0.5" y="0.5" width="31" height="31" rx="15.5" stroke="#ECECEC"/>
<g clip-path="url(#clip0_4061_585)">
<path d="M14.493 21.4086L14.0938 21.8078C13.7552 22.1465 13.3531 22.4151 12.9106 22.5982C12.468 22.7813 11.9938 22.8754 11.5148 22.875C11.0359 22.8747 10.5618 22.7799 10.1195 22.5961C9.67729 22.4123 9.27562 22.1431 8.93752 21.8039C8.25626 21.1203 7.87412 20.1942 7.875 19.2291C7.87588 18.264 8.25971 17.3386 8.94221 16.6562L11.6563 13.9422C11.9945 13.6039 12.3961 13.3355 12.838 13.1524C13.28 12.9693 13.7537 12.875 14.2321 12.875C14.7104 12.875 15.1841 12.9693 15.6261 13.1524C16.0681 13.3355 16.4696 13.6039 16.8078 13.9422C17.2891 14.4213 17.6258 15.0261 17.7797 15.6875" stroke="#333333" stroke-width="2" stroke-linecap="round" stroke-linejoin="round"/>
<path d="M17.5074 10.5914L17.9066 10.1921C18.2449 9.85382 18.6464 9.58545 19.0884 9.40234C19.5303 9.21924 20.004 9.125 20.4824 9.125C20.9608 9.125 21.4345 9.21924 21.8765 9.40234C22.3184 9.58545 22.72 9.85382 23.0582 10.1921C23.3965 10.5304 23.6649 10.9319 23.848 11.3739C24.0311 11.8158 24.1253 12.2895 24.1253 12.7679C24.1253 13.2463 24.0311 13.72 23.848 14.162C23.6649 14.6039 23.3965 15.0055 23.0582 15.3437L21.152 17.2499L20.3441 18.0578C20.0055 18.3964 19.6035 18.665 19.1609 18.8481C18.7184 19.0313 18.2441 19.1253 17.7652 19.125C17.2863 19.1246 16.8121 19.0298 16.3699 18.846C15.9277 18.6622 15.526 18.393 15.1879 18.0539C14.7094 17.5749 14.3744 16.9718 14.2207 16.3124" stroke="#333333" stroke-width="2" stroke-linecap="round" stroke-linejoin="round"/>
</g>
<defs>
<clipPath id="clip0_4061_585">
<rect width="20" height="20" fill="white" transform="translate(6 6)"/>
</clipPath>
</defs>
</svg>
