<svg width="48" height="48" viewBox="0 0 48 48" fill="none" xmlns="http://www.w3.org/2000/svg">
<rect width="48" height="48" rx="24" fill="#AEAEAE"/>
<path d="M17.5 9L8 14.7273L17.5 20.4545L27 14.7273L17.5 9Z" fill="white"/>
<path d="M8 14.7273V24.2727L17.5 30V20.4546L8 14.7273Z" fill="white"/>
<path d="M27 14.7273V24.2727L17.5 30V20.4546L27 14.7273Z" fill="white"/>
<path d="M23.8079 19.8818L21.9079 21.2563V17.7818L12.2939 12.1309L13.9849 11.1L23.8079 16.6745V19.8818Z" fill="#AEAEAE"/>
<circle cx="30.5715" cy="29.4286" r="10" fill="#AEAEAE"/>
<path d="M31.2383 22.8572C34.6059 22.8572 37.3335 25.5848 37.3335 28.9524V33.5238H25.1431V28.9524C25.1431 25.5848 27.8707 22.8572 31.2383 22.8572Z" fill="white"/>
<path d="M34.2866 35.0476H28.1914V36.5714H34.2866V35.0476Z" fill="white"/>
</svg>
