<svg width="57" height="56" viewBox="0 0 57 56" fill="none" xmlns="http://www.w3.org/2000/svg">
<g clip-path="url(#clip0_3549_6774)">
<path d="M11 8.75L46 47.25" stroke="#FC5660" stroke-width="4" stroke-linecap="round" stroke-linejoin="round"/>
<path d="M28.875 48C30.5319 48 31.875 46.6569 31.875 45C31.875 43.3431 30.5319 42 28.875 42C27.2181 42 25.875 43.3431 25.875 45C25.875 46.6569 27.2181 48 28.875 48Z" fill="#FC5660"/>
<path d="M16.1625 14.4375C12.3817 15.8201 8.86144 17.8309 5.75 20.3853" stroke="#FC5660" stroke-width="4" stroke-linecap="round" stroke-linejoin="round"/>
<path d="M51.25 20.3854C44.8417 15.1137 36.798 12.2373 28.5 12.25C26.9641 12.2495 25.4298 12.3466 23.9062 12.541" stroke="#FC5660" stroke-width="4" stroke-linecap="round" stroke-linejoin="round"/>
<path d="M24.0769 23.135C19.9371 23.8608 16.0438 25.6081 12.75 28.2188" stroke="#FC5660" stroke-width="4" stroke-linecap="round" stroke-linejoin="round"/>
<path d="M44.25 28.2187C41.1572 25.7649 37.5327 24.0695 33.6669 23.2684" stroke="#FC5660" stroke-width="4" stroke-linecap="round" stroke-linejoin="round"/>
<path d="M34.3647 34.4509C31.9947 33.4369 29.4022 33.0552 26.8405 33.3431C24.2788 33.6311 21.8357 34.5788 19.75 36.0937" stroke="#FC5660" stroke-width="4" stroke-linecap="round" stroke-linejoin="round"/>
</g>
<defs>
<clipPath id="clip0_3549_6774">
<rect width="56" height="56" fill="white" transform="translate(0.5)"/>
</clipPath>
</defs>
</svg>
